# xmcd
# Track frame offsets:
# 150
# 19349
# 34345
# 49190
# 62858
# 79253
# 92705
# 102727
# 122707
# 136230
# 147157
# 160989
# 173779
# 185662
# 198370
# 211867
# 229722
# 258086
# 279081
# 291848
# 309417
# 331797
#
# Disc length: 4693 seconds
# Revision: 0
# Processed by: cddbd v1.5.1PL0 Copyright (c) Steve Scherf et al.
# Submitted via: VisiTrax 2.9.10.228 - For more info visit www.synapsa.com
#
DISCID=3f125316
DTITLE=Ray Charles - the definitive Ray Charles [CD 2)
DYEAR=2001
DGENRE=R and B
TTITLE0=I can't Stop Loving Yoy
TTITLE1=Born To Lose
TTITLE2=You Don't Know Me
TTITLE3=You Are My Shunshine
TTITLE4=You Cheatnl' Hart
TTITLE5=Take These Chains From My Hart
TTITLE6=Busted
TTITLE7=That Lucky Old Sun
TTITLE8=Crying Time
TTITLE9=Cincinnati Kid
TTITLE10=Let's Go Get Stoned
TTITLE11=I Don't Need No Doctor
TTITLE12=In The Heat OF The Night
TTITLE13=Yesterday
TTITLE14=Elenor Rigby
TTITLE15=I Can Make It Thru' The Days
TTITLE16=Rainy Night In Georgia
TTITLE17=The Jealous Kind
TTITLE18=Shake Your Tailfeather (With The Blues Brothers)
TTITLE19=Seven Spanish Anmgels /With Willie Nelson)
TTITLE20=I'll Be Good To You
TTITLE21=Imagine
EXTD=
EXTT0=
EXTT1=
EXTT2=
EXTT3=
EXTT4=
EXTT5=
EXTT6=
EXTT7=
EXTT8=
EXTT9=
EXTT10=
EXTT11=
EXTT12=
EXTT13=
EXTT14=
EXTT15=
EXTT16=
EXTT17=
EXTT18=
EXTT19=
EXTT20=
EXTT21=
PLAYORDER=
